<svg xmlns="http://www.w3.org/2000/svg" viewBox="0 0 512 512" width="512" height="512">
  <defs>
    <linearGradient id="bgGrad" x1="0%" y1="0%" x2="100%" y2="100%">
      <stop offset="0%" stop-color="#263238" />
      <stop offset="100%" stop-color="#121212" />
    </linearGradient>
    
    <linearGradient id="barGrad" x1="0%" y1="100%" x2="0%" y2="0%">
      <stop offset="0%" stop-color="#1B5E20" />
      <stop offset="100%" stop-color="#4CAF50" />
    </linearGradient>

    <linearGradient id="discGrad" x1="0%" y1="0%" x2="0%" y2="100%">
      <stop offset="0%" stop-color="#64B5F6" />
      <stop offset="100%" stop-color="#1565C0" />
    </linearGradient>
    
    <linearGradient id="lipGrad" x1="0%" y1="0%" x2="0%" y2="100%">
      <stop offset="0%" stop-color="#1976D2" />
      <stop offset="100%" stop-color="#0D47A1" />
    </linearGradient>
  </defs>

  <rect width="512" height="512" fill="url(#bgGrad)" rx="112" />

  <rect x="96" y="330" width="64" height="100" fill="url(#barGrad)" rx="8" />
  <rect x="192" y="250" width="64" height="180" fill="url(#barGrad)" rx="8" />
  <rect x="288" y="170" width="64" height="260" fill="url(#barGrad)" rx="8" />

  <path d="M 128 330 L 224 250 L 320 170 L 400 110" fill="none" stroke="#FFC107" stroke-width="12" stroke-linecap="round" stroke-linejoin="round" />
  
  <circle cx="128" cy="330" r="12" fill="#ffffff" stroke="#FFC107" stroke-width="6" />
  <circle cx="224" cy="250" r="12" fill="#ffffff" stroke="#FFC107" stroke-width="6" />
  <circle cx="320" cy="170" r="12" fill="#ffffff" stroke="#FFC107" stroke-width="6" />

  <g transform="translate(400, 110) rotate(-15)">
     <ellipse cx="0" cy="12" rx="90" ry="28" fill="url(#lipGrad)" />
     <ellipse cx="0" cy="0" rx="90" ry="28" fill="url(#discGrad)" />
     
     <ellipse cx="0" cy="0" rx="60" ry="18" fill="none" stroke="#bbdefb" stroke-width="3" opacity="0.6"/>
     <ellipse cx="0" cy="0" rx="35" ry="10" fill="none" stroke="#bbdefb" stroke-width="2" opacity="0.8"/>
     
     <ellipse cx="0" cy="0" rx="10" ry="3" fill="#ffffff" opacity="0.9"/>
  </g>
</svg>
